<?xml version="1.0" encoding="iso-8859-1"?>
<!-- Generator: Adobe Illustrator 19.0.0, SVG Export Plug-In . SVG Version: 6.00 Build 0)  -->
<svg version="1.1" id="Capa_1" xmlns="http://www.w3.org/2000/svg" xmlns:xlink="http://www.w3.org/1999/xlink" x="0px" y="0px"
	 viewBox="0 0 487.951 487.951" style="enable-background:new 0 0 487.951 487.951;" xml:space="preserve">
<g>
	<g>
		<path d="M487.9,415.676v-344.4c0-20.8-16.6-37.5-37.5-37.5h-413c-20.7,0-37.4,16.7-37.4,37.5v345.4c0,20.8,16.6,37.5,37.5,37.5
			h414.1C472.3,454.176,489,437.476,487.9,415.676z M448.4,413.576H40.6v-339.2h407.8V413.576z"/>
		<path d="M96.8,357.376h128c10.4,0,19.8-8.3,19.8-19.8v-187.2c0-11.4-9.4-20.8-20.8-20.8h-127c-11.4,0-20.8,9.4-20.8,20.8v186.2
			C76,347.976,85.3,357.376,96.8,357.376z M117.6,171.176h86.3v145.6h-86.3V171.176z"/>
		<path d="M295.5,194.076h96.8c11.4,0,20.8-9.4,20.8-20.8s-9.4-20.8-20.8-20.8h-96.8c-11.4,0-20.8,9.4-20.8,20.8
			S284,194.076,295.5,194.076z"/>
		<path d="M290.3,335.576H387c11.4,0,20.8-9.4,20.8-20.8s-9.4-20.8-20.8-20.8h-96.8c-11.4,0-20.8,9.4-20.8,20.8
			S278.8,335.576,290.3,335.576z"/>
	</g>
</g>
<g>
</g>
<g>
</g>
<g>
</g>
<g>
</g>
<g>
</g>
<g>
</g>
<g>
</g>
<g>
</g>
<g>
</g>
<g>
</g>
<g>
</g>
<g>
</g>
<g>
</g>
<g>
</g>
<g>
</g>
</svg>
