<svg width="18" height="18" viewBox="0 0 18 18" fill="none" xmlns="http://www.w3.org/2000/svg">
<path fill-rule="evenodd" clip-rule="evenodd" d="M9.00002 11.8444C10.3746 11.8444 11.4889 10.7301 11.4889 9.35552C11.4889 7.98095 10.3746 6.86663 9.00002 6.86663C7.62545 6.86663 6.51113 7.98095 6.51113 9.35552C6.51113 10.7301 7.62545 11.8444 9.00002 11.8444ZM9.00002 11.2222C10.031 11.2222 10.8667 10.3865 10.8667 9.35552C10.8667 8.32459 10.031 7.48886 9.00002 7.48886C7.96909 7.48886 7.13336 8.32459 7.13336 9.35552C7.13336 10.3865 7.96909 11.2222 9.00002 11.2222Z" fill="white"/>
<path fill-rule="evenodd" clip-rule="evenodd" d="M11.9969 4.37775C11.2512 3.69233 10.5642 3.1333 8.97795 3.1333C7.39166 3.1333 6.70468 3.69233 5.95903 4.37775H3.40002C2.36909 4.37775 1.53336 5.21348 1.53336 6.24441V12.4666C1.53336 13.4976 2.36909 14.3333 3.40002 14.3333H14.6C15.631 14.3333 16.4667 13.4976 16.4667 12.4666V6.24441C16.4667 5.21348 15.631 4.37775 14.6 4.37775H11.9969ZM11.7535 4.99997L11.6882 4.93964C11.6261 4.8822 11.566 4.82659 11.5087 4.77441C11.2747 4.56109 11.0669 4.38384 10.8429 4.23658C10.4207 3.95902 9.89216 3.75552 8.97795 3.75552C8.06374 3.75552 7.53523 3.95902 7.113 4.23658C6.88898 4.38384 6.68124 4.56109 6.4472 4.77441C6.38984 4.82669 6.32994 4.88208 6.26768 4.93963L6.2024 4.99997H3.40002C2.71273 4.99997 2.15558 5.55712 2.15558 6.24441V12.4666C2.15558 13.1539 2.71273 13.7111 3.40002 13.7111H14.6C15.2873 13.7111 15.8445 13.1539 15.8445 12.4666V6.24441C15.8445 5.55712 15.2873 4.99997 14.6 4.99997H11.7535Z" fill="white"/>
</svg>
