<svg width="209" height="50" viewBox="0 0 209 50" fill="none" xmlns="http://www.w3.org/2000/svg">
<path fill-rule="evenodd" clip-rule="evenodd" d="M55.3101 36.7088V14.8124H57.5744L69.5611 31.8089V14.8124H72.1451V36.7088H69.8318L57.8937 19.696V36.7088H55.3101ZM104.958 31.5151V35.0472C103.893 35.7148 102.805 36.2226 101.699 36.5698C100.594 36.9171 99.4974 37.0935 98.4144 37.0935C97.3709 37.0935 96.3763 36.928 95.4311 36.602C94.4851 36.2707 93.593 35.7845 92.7495 35.1377C91.3998 34.0745 90.3477 32.712 89.597 31.0611C88.8467 29.4044 88.4695 27.6092 88.4695 25.6644C88.4695 24.1949 88.7181 22.7684 89.211 21.3844C89.7039 20.0061 90.4097 18.7928 91.3198 17.7618C92.2919 16.6557 93.3801 15.8276 94.5831 15.2827C95.7906 14.7321 97.1266 14.4595 98.5919 14.4595C99.6175 14.4595 100.63 14.5985 101.637 14.8817C102.641 15.1649 103.697 15.6083 104.799 16.2176V19.6214C103.644 18.8679 102.561 18.312 101.544 17.9488C100.532 17.5906 99.5464 17.4092 98.5919 17.4092C96.4654 17.4092 94.7117 18.2052 93.3219 19.7975C91.9324 21.3897 91.2399 23.383 91.2399 25.7818C91.2399 28.1545 91.9236 30.1315 93.2909 31.7237C94.6583 33.316 96.3719 34.112 98.4365 34.112C99.4974 34.112 100.567 33.8984 101.651 33.4709C102.739 33.0434 103.84 32.3913 104.958 31.5151ZM107.831 14.8124H110.414V27.3794C110.414 28.7796 110.477 29.7733 110.601 30.3556C110.73 30.938 110.938 31.4458 111.236 31.8733C111.773 32.6374 112.408 33.2035 113.145 33.583C113.882 33.9571 114.721 34.1441 115.658 34.1441C117.234 34.1441 118.503 33.6526 119.467 32.6746C120.43 31.6916 120.91 30.3984 120.91 28.7902V14.8124H123.494V28.8864C123.494 31.3227 122.77 33.2997 121.322 34.8174C119.875 36.3347 117.988 37.0935 115.658 37.0935C114.277 37.0935 113.034 36.7997 111.924 36.212C110.814 35.6187 109.882 34.7587 109.118 33.6205C108.647 32.9419 108.319 32.1883 108.124 31.3549C107.928 30.5215 107.831 29.239 107.831 27.5077V14.8124ZM129.886 27.059V33.8556H133.349C134.615 33.8556 135.538 33.5882 136.12 33.0487C136.705 32.5091 136.999 31.6699 136.999 30.5215C136.999 29.3298 136.67 28.4536 136.017 27.8978C135.365 27.337 134.335 27.059 132.932 27.059H129.886ZM127.303 36.7088V14.8124H132.63C134.446 14.8124 135.844 15.3092 136.825 16.2979C137.811 17.2915 138.304 18.6967 138.304 20.5241C138.304 21.6518 138.082 22.592 137.642 23.3402C137.199 24.0933 136.524 24.6704 135.614 25.0767C136.936 25.4562 137.962 26.14 138.686 27.1283C139.409 28.1223 139.769 29.3245 139.769 30.7457C139.769 32.5625 139.218 34.0105 138.113 35.0896C137.007 36.1692 135.511 36.7088 133.62 36.7088H127.303ZM129.886 24.2058H131.645C132.972 24.2058 133.957 23.9173 134.597 23.3455C135.24 22.7737 135.56 21.8975 135.56 20.7165C135.56 19.6426 135.307 18.8573 134.801 18.371C134.29 17.8791 133.483 17.6334 132.372 17.6334H129.886V24.2058ZM146.197 27.4438H151.867L148.995 19.557L146.197 27.4438ZM140.199 36.7088L148.084 14.8124H149.98L157.967 36.7088H155.276L152.932 30.2648H145.181L142.868 36.7088H140.199ZM162.313 36.7088V17.6656H155.627V14.8124H171.583V17.6656H164.897V36.7088H162.313ZM175.494 25.7818C175.494 26.8988 175.668 27.9674 176.014 28.9773C176.36 29.9872 176.862 30.8846 177.51 31.67C178.145 32.4504 178.886 33.054 179.743 33.4762C180.595 33.8984 181.488 34.112 182.416 34.112C183.366 34.112 184.263 33.9037 185.102 33.4921C185.937 33.0808 186.687 32.4716 187.344 31.67C187.992 30.8846 188.494 29.9872 188.844 28.9773C189.195 27.9674 189.373 26.8988 189.373 25.7818C189.373 24.6651 189.199 23.6124 188.853 22.6135C188.507 21.6196 187.992 20.7059 187.317 19.883C186.669 19.0761 185.923 18.4672 185.079 18.045C184.24 17.6228 183.353 17.4092 182.416 17.4092C181.51 17.4092 180.64 17.6228 179.792 18.0503C178.948 18.4778 178.185 19.0867 177.51 19.883C176.862 20.6419 176.36 21.534 176.014 22.5601C175.668 23.5807 175.494 24.6545 175.494 25.7818ZM172.724 25.6644C172.724 24.2058 172.973 22.7843 173.465 21.4113C173.958 20.0326 174.664 18.8145 175.574 17.7618C176.502 16.6879 177.55 15.8704 178.722 15.3039C179.89 14.7427 181.124 14.4595 182.416 14.4595C183.73 14.4595 184.982 14.7427 186.168 15.3145C187.348 15.881 188.391 16.6985 189.293 17.7618C190.238 18.8678 190.949 20.1023 191.428 21.4541C191.903 22.8112 192.143 24.2857 192.143 25.8727C192.143 27.3635 191.899 28.7956 191.406 30.1686C190.917 31.542 190.221 32.7495 189.319 33.7912C188.374 34.8761 187.322 35.6989 186.154 36.2548C184.986 36.8156 183.739 37.0935 182.416 37.0935C181.124 37.0935 179.885 36.805 178.7 36.2332C177.519 35.6561 176.476 34.8439 175.574 33.7912C174.638 32.6961 173.927 31.4564 173.448 30.0834C172.964 28.7047 172.724 27.2298 172.724 25.6644ZM195.015 36.7088V14.8124H200.343C202.181 14.8124 203.601 15.3361 204.6 16.3778C205.599 17.4199 206.097 18.9 206.097 20.8073C206.097 22.25 205.822 23.4095 205.275 24.2857C204.725 25.1619 203.864 25.8193 202.678 26.2574C202.984 26.4551 203.269 26.7171 203.54 27.0484C203.81 27.3741 204.157 27.9246 204.583 28.6994L209 36.7088H205.852L202.732 30.9649C201.795 29.2336 201.04 28.1276 200.463 27.652C199.89 27.1711 199.202 26.9306 198.408 26.9306H197.626V36.7088H195.015ZM197.626 24.302H199.784C200.996 24.302 201.901 24.0188 202.505 23.4576C203.105 22.8911 203.406 22.0312 203.406 20.8713C203.406 19.6801 203.122 18.8197 202.549 18.2802C201.977 17.7405 201.054 17.4733 199.784 17.4733H197.626V24.302Z" fill="#fff"/>
<path fill-rule="evenodd" clip-rule="evenodd" d="M51.023 6.73462C52.573 6.73462 53.8298 8.02659 53.8298 9.62C53.8298 11.2134 52.573 12.5054 51.023 12.5054C49.4729 12.5054 48.2161 11.2134 48.2161 9.62C48.2161 8.02659 49.4729 6.73462 51.023 6.73462Z" fill="#FF0808"/>
<path fill-rule="evenodd" clip-rule="evenodd" d="M61.0846 0.685424C48.1513 0.685424 37.6668 11.4635 37.6668 24.7587C37.6668 38.0535 48.1513 48.8316 61.0846 48.8316C74.018 48.8316 84.5029 38.0535 84.5029 24.7587C84.5029 11.4635 74.018 0.685424 61.0846 0.685424ZM37 24.7587C37 11.085 47.783 0 61.0846 0C74.3863 0 85.1696 11.085 85.1696 24.7587C85.1696 38.4321 74.3863 49.5171 61.0846 49.5171C47.783 49.5171 37 38.4321 37 24.7587Z" fill="#fff"/>
<path fill-rule="evenodd" clip-rule="evenodd" d="M49.7365 14.8157H52.3092V36.6949H49.7365V14.8157Z" fill="#fff"/>
<path fill-rule="evenodd" clip-rule="evenodd" d="M0 36.7268V14.8759H3.10743V36.7268H0ZM13.6985 36.7268V17.7234H5.73901V14.8759H24.7333V17.7234H16.7742V36.7268H13.6985Z" fill="#fff"/>
<path fill-rule="evenodd" clip-rule="evenodd" d="M28.569 23.6896C30.1194 23.6896 31.3759 24.9812 31.3759 26.575C31.3759 28.1688 30.1194 29.4603 28.569 29.4603C27.0186 29.4603 25.7621 28.1688 25.7621 26.575C25.7621 24.9812 27.0186 23.6896 28.569 23.6896Z" fill="#fff"/>
</svg>
